:SAMPLES-PER-SECOND 30
:FULLY-SPECIFIED
:DEGREES
380
root  -10.1373 38.0038 2.85591 -91.953 -86.8331 86.2041
RightUpLeg  -21.1209 -5.22372 -3.23173
RightLeg  8.50048 1.56293 -0.110862
RightFoot  1.00821 -0.353402 3.53725
RightToes  3.49245e-010 0 -3.6325e-017
Spine  4.80415 -1.45224 -1.9243
Spine1  6.4902 -2.15398 2.2311
HEad  -13.1203 2.19813 -3.36535
LeftShoulder1  -0.254241 4.18393 -31.2594
LeftArm  18.7281 -16.2965 -46.1507
LeftForeArm  19.7485 -33.4275 -6.28303
LeftHand  -0.0276013 5.30363 4.22976
RightShoulder  -0.830521 -5.85281 28.7469
RightArm  12.0976 -11.0197 41.3146
RightForeArm  20.6014 6.38643 5.98544
RightHand  -0.0854377 4.16198 -1.30793
LeftUpLeg  15.845 4.69639 -4.59395
LeftLeg  15.8922 0.407356 0.666758
LeftFoot  -23.3437 0.574283 4.11421
LeftToes  -5.6298e-010 8.41567e-011 -1.83319e-011
381
root  -11.6403 37.8772 2.72876 -66.9132 -88.246 61.1279
RightUpLeg  -22.055 -5.80218 -1.69717
RightLeg  13.6263 1.25857 0.396801
RightFoot  7.05642 -0.139808 1.06818
RightToes  3.49245e-010 0 -3.6325e-017
Spine  4.71811 -1.58015 1.12141
Spine1  6.48597 -2.12545 1.94649
HEad  -12.5576 1.56783 -3.3842
LeftShoulder1  -0.33249 4.3807 -31.7564
LeftArm  20.3124 -12.9977 -45.6335
LeftForeArm  19.6568 -32.7387 -6.11359
LeftHand  -0.0191314 5.61954 3.72069
RightShoulder  -0.882404 -5.97642 29.0959
RightArm  12.3082 -10.0258 40.977
RightForeArm  19.9683 6.67075 6.08855
RightHand  -0.105953 4.44112 -1.5297
LeftUpLeg  17.4491 2.56644 -3.0816
LeftLeg  17.8078 0.738884 0.707793
LeftFoot  -23.6836 0.26961 1.21253
LeftToes  -5.6298e-010 8.41567e-011 -1.83319e-011
382
root  -13.1827 37.6635 2.59159 -43.9216 -89.9966 37.6954
RightUpLeg  -22.9089 -4.59177 0.236591
RightLeg  20.7223 1.234 0.273079
RightFoot  4.68052 0.0294504 0.0103542
RightToes  3.49245e-010 0 -3.6325e-017
Spine  5.14457 -1.40314 4.85325
Spine1  6.36067 -1.4149 0.885065
HEad  -12.657 1.40429 -3.76917
LeftShoulder1  -0.426127 4.59115 -33.0455
LeftArm  22.5284 -9.59613 -44.7161
LeftForeArm  18.2491 -30.5691 -5.6591
LeftHand  -0.0129235 5.78766 3.93392
RightShoulder  -0.898817 -6.00499 29.3464
RightArm  12.4532 -8.31913 41.0023
RightForeArm  20.4268 6.64491 6.17846
RightHand  -0.0344345 4.21915 -0.695659
LeftUpLeg  17.9632 2.04085 -0.753306
LeftLeg  23.0874 -0.245865 0.18474
LeftFoot  -23.4841 -0.161972 -2.8423
LeftToes  -5.6298e-010 8.41567e-011 -1.83319e-011
383
root  -14.6268 37.5623 2.42472 103.036 -88.317 -109.108
RightUpLeg  -23.3335 -2.88575 2.02181
RightLeg  25.5252 0.313932 -0.0638866
RightFoot  2.73818 0.313476 -2.40242
RightToes  3.49245e-010 0 -3.6325e-017
Spine  4.85945 -1.20595 8.05823
Spine1  6.90154 -0.706555 0.274189
HEad  -12.6804 1.01719 -3.70484
LeftShoulder1  -0.478499 4.70158 -33.8041
LeftArm  24.1736 -5.36724 -44.2619
LeftForeArm  15.7361 -27.0692 -4.85297
LeftHand  0.00993498 6.49043 4.39521
RightShoulder  -0.818174 -5.78943 29.1789
RightArm  12.7072 -5.77283 42.1348
RightForeArm  20.642 5.76272 6.45507
RightHand  -0.0441398 4.17444 -0.809927
LeftUpLeg  15.789 2.28443 1.8441
LeftLeg  31.2733 -2.67984 -1.44786
LeftFoot  -19.9956 -0.477563 -8.37915
LeftToes  -5.6298e-010 8.41567e-011 -1.83319e-011
384
root  -15.9668 37.5556 2.19263 81.2254 -87.4546 -87.1837
RightUpLeg  -22.7071 -3.10816 3.22608
RightLeg  28.7874 -0.35165 -0.450304
RightFoot  -0.737975 0.320346 -3.46983
RightToes  3.49245e-010 0 -3.6325e-017
Spine  5.11896 -1.43057 9.68142
Spine1  6.66927 -0.5871 0.550887
HEad  -11.7051 0.529111 -3.08181
LeftShoulder1  -0.44148 4.61498 -33.5812
LeftArm  23.4385 -0.802854 -44.4397
LeftForeArm  15.607 -21.9583 -4.93095
LeftHand  0.0197749 7.25015 3.31019
RightShoulder  -0.854656 -5.87658 29.4165
RightArm  13.0115 -2.99813 43.4467
RightForeArm  20.9751 5.08222 6.74451
RightHand  -0.0400908 3.8368 -0.766513
LeftUpLeg  10.9934 1.15673 3.90082
LeftLeg  41.9335 -3.99563 -3.39811
LeftFoot  -10.5526 0.126956 -12.7302
LeftToes  -5.6298e-010 8.41567e-011 -1.83319e-011
385
root  -17.1895 37.5931 2.02505 66.9274 -85.9101 -72.7499
RightUpLeg  -21.3765 -3.84031 4.73675
RightLeg  30.3381 -0.873476 -0.805653
RightFoot  -3.6722 0.207877 -3.46357
RightToes  3.49245e-010 0 -3.6325e-017
Spine  5.53522 -1.60348 12.5519
Spine1  6.30673 -0.170142 -0.228362
HEad  -10.955 -0.734371 -2.75959
LeftShoulder1  -0.422689 4.56655 -33.6223
LeftArm  14.0717 1.81997 -44.0578
LeftForeArm  25.0228 -14.6249 -8.81021
LeftHand  0.00593567 7.57628 2.56511
RightShoulder  -0.881947 -5.95869 29.3348
RightArm  12.6871 -0.724247 44.8473
RightForeArm  20.7719 5.97211 6.71004
RightHand  -0.074545 3.93842 -1.19582
LeftUpLeg  4.08448 -0.82677 5.55597
LeftLeg  53.3097 -2.85858 -3.6105
LeftFoot  3.44099 1.30004 -10.6974
LeftToes  -5.6298e-010 8.41567e-011 -1.83319e-011
386
root  -18.3888 37.6855 1.89736 66.2897 -85.172 -72.1692
RightUpLeg  -19.6052 -3.96005 5.54605
RightLeg  31.2459 -1.18542 -1.03562
RightFoot  -6.2241 0.103616 -3.24547
RightToes  3.49245e-010 0 -3.6325e-017
Spine  5.75043 -1.21546 15.0202
Spine1  6.72877 0.854357 -1.34143
HEad  -10.8 -1.92609 -2.43126
LeftShoulder1  -0.46112 4.64456 -34.2637
LeftArm  4.274 3.72886 -42.6669
LeftForeArm  36.7972 -8.29107 -11.0311
LeftHand  -0.0465526 9.10064 0.028721
RightShoulder  -0.886616 -5.9801 29.2077
RightArm  12.4512 1.58567 45.7962
RightForeArm  19.4561 7.96245 6.58519
RightHand  -0.0611793 4.02938 -1.03657
LeftUpLeg  -1.93926 -1.74017 6.30783
LeftLeg  61.3531 -1.83651 -3.11034
LeftFoot  11.8506 1.21329 -6.03463
LeftToes  -5.6298e-010 8.41567e-011 -1.83319e-011
387
root  -19.6296 37.9999 1.74149 66.5092 -85.5735 -72.9325
RightUpLeg  -16.2641 -3.76303 5.30587
RightLeg  30.3014 -1.22322 -1.03084
RightFoot  -8.05921 0.0286053 -2.92868
RightToes  3.49245e-010 0 -3.6325e-017
Spine  6.30963 -0.707278 15.7216
Spine1  6.8734 1.81849 -2.5084
HEad  -10.3954 -2.82303 -2.37993
LeftShoulder1  -0.479539 4.68883 -34.294
LeftArm  -0.311143 6.79877 -41.5048
LeftForeArm  42.9568 -4.95842 -10.8887
LeftHand  -0.123033 10.3583 -1.49147
RightShoulder  -0.822525 -5.83477 28.6789
RightArm  13.2229 4.37992 47.1287
RightForeArm  17.1314 9.60391 6.68271
RightHand  -0.118532 3.89896 -1.68652
LeftUpLeg  -6.38117 -1.85479 6.32772
LeftLeg  65.8315 -1.68184 -3.42544
LeftFoot  7.42275 0.738961 -4.76715
LeftToes  -5.6298e-010 8.41567e-011 -1.83319e-011
